<svg id="SvgjsSvg1034" width="288" height="288" xmlns="http://www.w3.org/2000/svg" version="1.1" xmlns:xlink="http://www.w3.org/1999/xlink"><defs id="SvgjsDefs1035"></defs><g id="SvgjsG1036"><svg xmlns="http://www.w3.org/2000/svg" viewBox="0 0 52 52" width="288" height="288"><g fill="none" stroke="#f4dada" stroke-linecap="round" stroke-linejoin="round" stroke-miterlimit="10" stroke-width="2" class="colorStroke000 svgStroke"><path d="M2 50h20.695c0-5.715-4.632-10.347-10.348-10.347S2 44.285 2 50zM12.347 39.653c2.509 0 4.547-3.008 4.547-5.516 0-2.509-2.038-4.547-4.547-4.547s-4.546 2.038-4.546 4.547c0 2.508 2.038 5.516 4.546 5.516z" fill="#b8b2a6" class="color000 svgShape"></path></g><g fill="none" stroke="#f4dada" stroke-linecap="round" stroke-linejoin="round" stroke-miterlimit="10" stroke-width="2" class="colorStroke000 svgStroke"><path d="M29.305 22.41H50c0-5.716-4.632-10.348-10.347-10.348S29.305 16.694 29.305 22.41zM39.653 12.062c2.508 0 4.546-3.007 4.546-5.515S42.161 2 39.653 2c-2.509 0-4.547 2.038-4.547 4.547s2.038 5.515 4.547 5.515z" fill="#b8b2a6" class="color000 svgShape"></path></g><g fill="none" stroke="#f4dada" stroke-linecap="round" stroke-linejoin="round" stroke-miterlimit="10" stroke-width="2" class="colorStroke000 svgStroke"><path d="M7.174 26C7.174 15.603 15.603 7.174 26 7.174M44.826 26c0 10.397-8.429 18.826-18.826 18.826" fill="#b8b2a6" class="color000 svgShape"></path></g></svg></g></svg>