<svg id="SvgjsSvg1013" width="288" height="288" xmlns="http://www.w3.org/2000/svg" version="1.1" xmlns:xlink="http://www.w3.org/1999/xlink"><defs id="SvgjsDefs1014"></defs><g id="SvgjsG1015"><svg xmlns="http://www.w3.org/2000/svg" viewBox="0 0 32 32" width="288" height="288"><g fill="#b8b2a6" class="color000 svgShape"><path d="M29,5H3A1,1,0,0,0,2,6V26a1,1,0,0,0,1,1H29a1,1,0,0,0,1-1V6A1,1,0,0,0,29,5ZM28,25H4V7H28Z" fill="#b8b2a6" class="color000 svgShape"></path><path d="M7 23h9a1 1 0 0 0 1-1V17a1 1 0 0 0-1-1H7a1 1 0 0 0-1 1v5A1 1 0 0 0 7 23zm1-5h7v3H8zM7 14h6a1 1 0 0 0 0-2H7a1 1 0 0 0 0 2zM7 11h6a1 1 0 0 0 0-2H7a1 1 0 0 0 0 2zM23 13h2a1 1 0 0 0 0-2H23a1 1 0 0 0 0 2z" fill="#b8b2a6" class="color000 svgShape"></path></g></svg></g></svg>